<?xml version="1.0" encoding="UTF-8"?>
<svg width="9px" height="14px" viewBox="0 0 9 14" version="1.1" xmlns="http://www.w3.org/2000/svg" xmlns:xlink="http://www.w3.org/1999/xlink">
    <!-- Generator: sketchtool 49 (51002) - http://www.bohemiancoding.com/sketch -->
    <title>3575F3B1-BFAD-49E7-B740-70FC4EEEED69</title>
    <desc>Created with sketchtool.</desc>
    <defs>
        <path d="M8.60764728,7.36573968 L1.83736552,13.6767975 C1.64295558,13.8580207 1.34074192,13.8554815 1.14940453,13.6710171 L0.393089694,12.94187 C0.194289632,12.7502111 0.188500602,12.4336815 0.380159535,12.2348815 C0.387229909,12.2275476 0.39452276,12.2204316 0.402027877,12.2135434 L6.08244766,7 L0.395267026,1.76780682 C0.192045057,1.58084307 0.178865163,1.26453505 0.36582891,1.06131308 C0.373899166,1.05254105 0.382280519,1.0440604 0.390956904,1.03588739 L1.14959718,0.32126132 C1.34143149,0.140556703 1.64059112,0.139775223 1.8333669,0.319475141 L8.60764728,6.63426032 C8.80963973,6.82255174 8.8207466,7.13893934 8.63245517,7.34093179 C8.62447863,7.34948875 8.61620424,7.35776314 8.60764728,7.36573968 Z" id="path-1"></path>
    </defs>
    <g id="Page-1" stroke="none" stroke-width="1" fill="none" fill-rule="evenodd">
        <g id="single-promotion" transform="translate(-1388.000000, -1467.000000)">
            <g id="2.-Icons-/-1.-UI-/-16-Size-/-ic_arrow-right" transform="translate(1388.000000, 1467.000000)">
                <mask id="mask-2" fill="white">
                    <use xlink:href="#path-1"></use>
                </mask>
                <use id="ic_arrow-right" fill="#282A44" xlink:href="#path-1"></use>
            </g>
        </g>
    </g>
</svg>